<svg width="17" height="13" viewBox="0 0 17 13" fill="none" xmlns="http://www.w3.org/2000/svg">
<path d="M17 0.8125V4.0625L8.5 7.3125L0 4.0625V0.8125C0 0.597012 0.0895533 0.390349 0.248959 0.237976C0.408365 0.0856026 0.624566 0 0.85 0H16.15C16.3754 0 16.5916 0.0856026 16.751 0.237976C16.9104 0.390349 17 0.597012 17 0.8125ZM0 5.81263V12.1875C0 12.403 0.0895533 12.6097 0.248959 12.762C0.408365 12.9144 0.624566 13 0.85 13H16.15C16.3754 13 16.5916 12.9144 16.751 12.762C16.9104 12.6097 17 12.403 17 12.1875V5.81263L8.5 9.06262L0 5.81263Z" fill="white"/>
</svg>
