<svg width="15" height="17" viewBox="0 0 15 17" fill="none" xmlns="http://www.w3.org/2000/svg">
<path d="M5.37686 5.14138L4.97733 5.57157C4.97733 5.57157 4.02747 6.59403 6.6201 9.38486C9.21263 12.1757 10.1624 11.1532 10.1624 11.1532L10.4141 10.8824C11.034 10.215 12.0292 10.1521 12.7557 10.7344L14.242 11.9253C15.1413 12.6459 15.26 14.0383 14.4928 14.8642L13.1157 16.3466C12.7353 16.7561 12.2421 17.0306 11.695 16.9973C10.2954 16.9121 7.28407 16.2343 3.77062 12.4522C0.0447855 8.44136 -0.103273 4.67804 0.030757 3.13907C0.0731096 2.6523 0.304727 2.229 0.621669 1.88787L1.86791 0.54619C2.70923 -0.359436 4.15153 -0.104059 4.73997 1.05468L5.65639 2.85904C6.04277 3.61988 5.9293 4.54676 5.37686 5.14138Z" fill="white"/>
</svg>
